<?xml version="1.0" encoding="UTF-8"?>
<svg id="Layer_1" data-name="Layer 1" xmlns="http://www.w3.org/2000/svg" xmlns:xlink="http://www.w3.org/1999/xlink" viewBox="0 0 768 1000">
  <defs>
    <style>
      .cls-1 {
        fill: none;
      }

      .cls-2 {
        fill: #fff;
      }

      .cls-3 {
        fill: #022c30;
      }

      .cls-4 {
        clip-path: url(#clippath);
      }
    </style>
    <clipPath id="clippath">
      <rect class="cls-1" width="768" height="1000"/>
    </clipPath>
  </defs>
  <g class="cls-4">
    <rect class="cls-3" width="768" height="1000"/>
    <g>
      <path class="cls-2" d="M541.44,638.2c-6.66-.54-24.9-5.66-50.24-41.27-17.83-25.05-29.21-51.98-26.46-62.63,3.94-15.31,13.13-20.15,13.52-20.35.59-.3,1.68-.86,3.09-1.31.03,0,2.7-.85,4.97-.72,4.02.21,7.06,3.15,9.07,5.1.62.6,1.15,1.18,1.59,1.68-.99-1.9-2.42-4.78-3.22-8.27l-.06-.25c-.51-2.18-1.69-7.28.05-11.15,4.02-8.92,18.8-9.34,23.66-9.48,6.02-.17,21.26.64,32.82,11.95,7.82,7.64,10.46,16.5,12.5,24.92,6.06,25.08,20.26,83.79-5.72,106.09l-.53-.62c25.61-21.98,11.49-80.35,5.46-105.28-2.01-8.31-4.61-17.05-12.28-24.54-11.34-11.09-26.32-11.89-32.23-11.72-4.73.14-19.12.55-22.94,9-1.63,3.61-.49,8.53,0,10.63l.06.25c.86,3.75,2.48,6.82,3.44,8.64.77,1.47,1.01,1.91.55,2.2-.42.25-.71-.1-1.42-.95-.51-.61-1.27-1.53-2.3-2.53-1.93-1.86-4.83-4.68-8.55-4.88-2.12-.11-4.65.68-4.68.69-1.35.43-2.4.97-2.97,1.25-.09.05-9.26,4.9-13.1,19.82-2.64,10.27,8.92,37.48,26.34,61.95,17.71,24.88,35.8,39.8,49.65,40.93l-.07.81Z"/>
      <path class="cls-2" d="M561.95,631.19c-1.5.38-3.04.69-4.61.92l-.12-.81c6.16-.91,11.73-2.96,16.58-6.09,20.51-13.26,22.33-41.37,22.42-66.68.05-14.46.11-30.86-11.41-43.06l-.18-.19c-6.33-6.64-15.04-10.58-18.02-9.49-3.06,1.16-5.21,10.29,1.87,47.18l-.8.15c-5.86-30.49-6.3-46.22-1.36-48.09,3.67-1.38,12.83,3.32,18.89,9.68l.13.14c11.8,12.48,11.73,29.05,11.68,43.67-.09,25.52-1.94,53.88-22.8,67.36-3.7,2.39-7.82,4.16-12.28,5.29Z"/>
      <path class="cls-2" d="M497.4,659.06c-13.31,3.37-27.34,3.88-40.14-1.61-9.93-4.27-27.47-15.88-25.19-21.29.87-2.05,6.46-4.32,11.19-3.06.97.23,1.96.49,2.97.78,3.93,1.13,7.79,2.63,11.48,4.44l-.36.73c-3.65-1.79-7.46-3.27-11.35-4.39-1-.29-1.98-.54-2.94-.78-4.42-1.18-9.58,1.02-10.24,2.59-.83,1.97,1.98,5.64,7.73,10.07,5.03,3.88,11.72,7.87,17.03,10.15,29.02,12.46,64.58-6.46,83.2-18.85l.45.68c-10.58,7.04-26.6,16.18-43.83,20.54Z"/>
      <path class="cls-2" d="M520.59,645.6c-.84.21-1.69.41-2.53.6-17.07,3.77-35.98,2.35-53.25-3.98-15.56-5.71-28.63-14.91-35.86-25.23-.54-.77-1.01-1.5-1.14-1.7-13.42-20.65-9.86-36.21-7.71-41.95,1.72-4.58,8.58-19.85,25.01-23.37,10.47-2.27,19.32,1.42,23.66,3.83l-.39.71c-4.24-2.35-12.89-5.96-23.09-3.74-15.99,3.45-22.74,18.38-24.42,22.86-2.11,5.62-5.59,20.88,7.61,41.18.15.24.62.96,1.15,1.72,14.11,20.15,51.87,36.93,88.27,28.89,7.65-1.68,15.17-4.47,22.35-8.26l.38.72c-6.45,3.41-13.17,6.01-20.02,7.74Z"/>
      <path class="cls-2" d="M617.58,834.66c-4.01,1.01-8.45.62-11.32-1.5-5.48-4.06-4.59-13.71-4.12-18.9l.1-1.11c1.18-13.98-2.57-21.73-9.37-35.82-5.62-11.63-13.31-27.55-21.92-54.74-3.66-11.55-5.64-19.27-7.38-26.09-2.42-9.46-4.17-16.29-9-27.68-8.96-21.13-13.46-31.73-15.87-34.3l-.49-.52c-2.42-2.53-6.91-7.24-6.2-12.63.46-3.49,3.3-7.55,6.74-8.1,2.97-.45,6.26,1.03,9.76,4.39,9.39,8.99,17.92,41.21,24.78,67.1,2.15,8.11,4.18,15.77,6,21.82,12.71,42.23,35.63,85.63,35.86,86.07l.64,1.12c5.56,9.66,15.91,27.65,9.25,36.37-1.68,2.21-4.45,3.76-7.45,4.52ZM538.45,614.17c-2.66.67-5.19,3.9-5.64,7.32h0c-.66,5.01,3.5,9.36,5.98,11.97l.5.52c2.51,2.67,7.03,13.31,16.03,34.53,4.86,11.45,6.61,18.31,9.05,27.8,1.74,6.81,3.72,14.52,7.37,26.05,8.59,27.13,16.27,43.03,21.88,54.63,6.87,14.21,10.65,22.04,9.45,36.24l-.1,1.11c-.46,5.03-1.32,14.38,3.79,18.17,4.71,3.49,13.94,1.99,17.64-2.85,6.33-8.29-3.84-25.97-9.31-35.47l-.65-1.13c-.24-.45-23.2-43.91-35.92-86.23-1.83-6.07-3.86-13.73-6-21.85-6.83-25.79-15.33-57.89-24.55-66.72-3.31-3.18-6.37-4.58-9.08-4.17-.14.02-.28.05-.41.08Z"/>
    </g>
  </g>
</svg>