<?xml version="1.0" encoding="UTF-8"?>
<svg id="Layer_1" data-name="Layer 1" xmlns="http://www.w3.org/2000/svg" viewBox="0 0 64 65.4">
  <defs>
    <style>
      .cls-1, .cls-2 {
        fill: none;
      }

      .cls-2 {
        stroke: #d51d4f;
        stroke-miterlimit: 10;
        stroke-width: 3px;
      }
    </style>
  </defs>
  <polyline class="cls-1" points="39.42 64 0 64 0 0 64 0 64 64 46.7 64"/>
  <g>
    <path class="cls-2" d="M38.31,52.84c-10.37-2.75-21.22-31.34-18.43-37.68,2.08-4.72,5.29-5.74,5.29-5.74.23-.07.58-.18,1.03-.24.09-.01.91-.11,1.56.04,1.2.28,1.97,1.35,2.51,2.1.53.75.75,1.32.83,1.29.14-.06-.64-1.62-.75-3.59-.04-.69-.17-2.44.6-3.6,1.71-2.59,6.36-1.9,7.85-1.68,1.79.26,6.56,1.31,9.61,5.64,2.02,2.87,2.38,5.88,2.56,8.68.52,8.16,1.81,28.13-7.54,33.84"/>
    <path class="cls-2" d="M51.34,26.95c-.22-12.28.92-15.25,2.09-15.48,1.09-.22,3.67,1.64,5.3,4.13.02.03.04.05.05.07,2.94,4.54,2.14,9.6,1.27,14.65-1.35,7.84-3.47,17.2-10.79,20.39-2.21.96-4.28,1.08-5.62,1.05"/>
    <path class="cls-2" d="M11.79,48.43c-.96-.72-2.08-1.43-3.36-2.07-.3-.15-.6-.29-.89-.42h0c-1.35-.64-3.19-.24-3.53.31-.92,1.46,3.74,6.1,6.74,8.1,9.11,6.08,22.39.84,27.4-1.42"/>
    <path class="cls-2" d="M19.89,21.73c-.81-.67-3.48-2.69-7.17-2.53-5.68.25-8.69,5.45-9.06,6.09-3.03,5.29-.78,11.64.14,13.85.02.04.13.32.27.62,3.32,7.23,14.23,14.92,26.39,14.35,1.79-.08,4.41-.38,7.53-1.43"/>
    <path class="cls-2" d="M45.13,64.01c.02.22.04.44.06.66"/>
    <path class="cls-2" d="M41.2,65.1c-.1-.48-.21-.99-.33-1.53-1.68-7.35-2.52-11.03-3.15-12.01-.59-.92-1.91-2.75-1.38-4.51.34-1.12,1.42-2.17,2.44-2.15,1.33.03,2.34,1.36,2.74,1.91,1.93,2.68,2.91,9.95,3.61,17.2"/>
  </g>
</svg>