<?xml version="1.0" encoding="UTF-8"?>
<svg id="Layer_1" data-name="Layer 1" xmlns="http://www.w3.org/2000/svg" viewBox="0 0 768 1000">
  <defs>
    <style>
      .cls-1 {
        fill: none;
      }

      .cls-2 {
        fill: #fff;
      }

      .cls-3 {
        fill: #022c30;
      }
    </style>
  </defs>
  <rect class="cls-3" width="768" height="1000"/>
  <g>
    <path class="cls-2" d="M640.13,889.62c-8.11-.66-30.31-6.89-61.16-50.24-21.7-30.5-35.55-63.27-32.21-76.24,4.8-18.63,15.98-24.52,16.45-24.77.72-.36,2.05-1.04,3.77-1.59.03,0,3.29-1.03,6.05-.88,4.89.26,8.59,3.84,11.04,6.21.76.74,1.4,1.44,1.93,2.04-1.21-2.31-2.94-5.82-3.92-10.07l-.07-.3c-.62-2.65-2.06-8.87.06-13.57,4.9-10.85,22.88-11.37,28.79-11.54,7.32-.21,25.88.78,39.96,14.54,9.52,9.3,12.73,20.09,15.21,30.34,7.38,30.52,24.66,102-6.96,129.14l-.64-.75c31.17-26.75,13.99-97.81,6.65-128.15-2.45-10.12-5.62-20.75-14.94-29.87-13.81-13.5-32.04-14.47-39.23-14.26-5.76.17-23.28.67-27.92,10.95-1.99,4.4-.59,10.38,0,12.94l.07.3c1.05,4.57,3.02,8.3,4.19,10.52.94,1.79,1.23,2.33.67,2.67-.51.31-.86-.12-1.73-1.16-.62-.74-1.55-1.87-2.8-3.08-2.34-2.27-5.89-5.69-10.4-5.93-2.58-.14-5.67.83-5.7.84-1.64.52-2.93,1.18-3.61,1.53-.11.06-11.27,5.96-15.95,24.13-3.22,12.5,10.86,45.63,32.06,75.41,21.55,30.29,43.58,48.45,60.43,49.83l-.08.99Z"/>
    <path class="cls-2" d="M665.09,881.08c-1.83.46-3.7.83-5.62,1.12l-.15-.98c7.49-1.11,14.28-3.61,20.18-7.42,24.97-16.14,27.18-50.36,27.29-81.17.07-17.61.14-37.56-13.89-52.41l-.22-.23c-7.7-8.08-18.3-12.88-21.93-11.55-3.72,1.41-6.35,12.52,2.28,57.43l-.97.19c-7.13-37.11-7.67-56.26-1.66-58.54,4.46-1.68,15.62,4.05,23,11.79l.16.17c14.36,15.19,14.28,35.36,14.22,53.16-.12,31.07-2.36,65.58-27.75,81.99-4.5,2.91-9.52,5.07-14.95,6.44Z"/>
    <path class="cls-2" d="M586.52,915.01c-16.2,4.1-33.28,4.73-48.86-1.96-12.09-5.19-33.44-19.33-30.66-25.91,1.05-2.49,7.86-5.26,13.62-3.73,1.18.28,2.39.6,3.62.95,4.78,1.38,9.48,3.2,13.98,5.41l-.44.89c-4.44-2.18-9.09-3.98-13.81-5.35-1.22-.35-2.41-.66-3.58-.94-5.38-1.44-11.66,1.24-12.47,3.15-1.01,2.39,2.42,6.86,9.41,12.26,6.12,4.73,14.26,9.58,20.73,12.36,35.32,15.17,78.61-7.87,101.28-22.95l.55.82c-12.88,8.57-32.38,19.69-53.35,25Z"/>
    <path class="cls-2" d="M614.75,898.62c-1.03.26-2.05.5-3.08.73-20.78,4.59-43.8,2.87-64.82-4.85-18.94-6.95-34.85-18.15-43.65-30.71-.66-.94-1.23-1.83-1.39-2.07-16.34-25.13-12.01-44.08-9.39-51.06,2.09-5.58,10.45-24.17,30.44-28.45,12.74-2.77,23.51,1.73,28.8,4.66l-.48.87c-5.17-2.86-15.69-7.25-28.11-4.56-19.46,4.2-27.68,22.37-29.72,27.83-2.57,6.84-6.8,25.42,9.26,50.13.19.29.75,1.17,1.4,2.09,17.17,24.53,63.14,44.95,107.45,35.16,9.32-2.04,18.47-5.44,27.2-10.06l.46.88c-7.85,4.15-16.03,7.31-24.37,9.42Z"/>
    <path class="cls-2" d="M732.81,1128.76c-4.88,1.24-10.29.75-13.77-1.83-6.67-4.94-5.59-16.69-5.01-23l.12-1.35c1.43-17.01-3.13-26.46-11.41-43.6-6.84-14.15-16.2-33.54-26.68-66.63-4.45-14.06-6.86-23.46-8.99-31.76-2.95-11.51-5.08-19.83-10.96-33.69-10.91-25.72-16.38-38.63-19.32-41.75l-.6-.63c-2.94-3.08-8.41-8.81-7.55-15.38.56-4.25,4.02-9.19,8.21-9.86,3.62-.54,7.62,1.25,11.89,5.34,11.43,10.95,21.82,50.16,30.16,81.68,2.61,9.87,5.08,19.19,7.3,26.56,15.47,51.41,43.37,104.24,43.65,104.77l.78,1.36c6.77,11.76,19.37,33.66,11.26,44.27-2.05,2.69-5.42,4.57-9.07,5.5ZM636.49,860.37c-3.24.82-6.32,4.75-6.87,8.91h0c-.81,6.1,4.26,11.4,7.28,14.57l.61.64c3.06,3.25,8.56,16.21,19.51,42.03,5.91,13.94,8.05,22.29,11.01,33.84,2.12,8.29,4.53,17.67,8.97,31.7,10.46,33.03,19.81,52.37,26.63,66.5,8.36,17.3,12.96,26.83,11.5,44.11l-.12,1.36c-.56,6.12-1.6,17.51,4.62,22.12,5.73,4.25,16.96,2.43,21.47-3.47,7.7-10.09-4.68-31.61-11.33-43.18l-.79-1.38c-.29-.54-28.24-53.46-43.73-104.96-2.22-7.39-4.69-16.72-7.31-26.6-8.31-31.39-18.66-70.46-29.89-81.21-4.03-3.87-7.75-5.57-11.05-5.07-.17.02-.34.06-.5.1Z"/>
  </g>
  <rect class="cls-1" width="768" height="1000"/>
  <rect class="cls-1" width="768" height="1000"/>
</svg>